<svg width="11" height="10" viewBox="0 0 11 10" fill="none" xmlns="http://www.w3.org/2000/svg">
<path fill-rule="evenodd" clip-rule="evenodd" d="M5.50414 4.57764e-05C2.73698 4.57764e-05 0.5 2.2917 0.5 5.1268C0.5 7.39304 1.93331 9.31136 3.92169 9.99032C4.17029 10.0414 4.26135 9.88 4.26135 9.74428C4.26135 9.62542 4.25315 9.21803 4.25315 8.79355C2.86112 9.09918 2.57125 8.18241 2.57125 8.18241C2.34754 7.58824 2.01607 7.43554 2.01607 7.43554C1.56046 7.12147 2.04926 7.12147 2.04926 7.12147C2.55465 7.15543 2.81984 7.64772 2.81984 7.64772C3.26716 8.42855 3.98796 8.20793 4.27794 8.0721C4.31932 7.74106 4.45197 7.51189 4.59281 7.3846C3.48257 7.26575 2.31445 6.82439 2.31445 4.85513C2.31445 4.29492 2.51317 3.83659 2.82804 3.48014C2.77836 3.35284 2.60433 2.82649 2.87782 2.12202C2.87782 2.12202 3.30035 1.98618 4.25305 2.64826C4.66094 2.53604 5.08159 2.47895 5.50414 2.47847C5.92666 2.47847 6.35738 2.53795 6.75512 2.64826C7.70793 1.98618 8.13045 2.12202 8.13045 2.12202C8.40394 2.82649 8.22981 3.35284 8.18013 3.48014C8.5033 3.83659 8.69382 4.29492 8.69382 4.85513C8.69382 6.82439 7.5257 7.2572 6.40716 7.3846C6.58949 7.54585 6.74682 7.85137 6.74682 8.33522C6.74682 9.02272 6.73863 9.57449 6.73863 9.74417C6.73863 9.88 6.82979 10.0414 7.07829 9.99042C9.06667 9.31126 10.5 7.39304 10.5 5.1268C10.5082 2.2917 8.263 4.57764e-05 5.50414 4.57764e-05Z" fill="#4D4D4D"/>
</svg>
