<svg width="11" height="10" viewBox="0 0 11 10" fill="none" xmlns="http://www.w3.org/2000/svg">
<path fill-rule="evenodd" clip-rule="evenodd" d="M10.5 5.00005C10.5 7.76147 8.26142 10 5.5 10C2.73858 10 0.5 7.76147 0.5 5.00005C0.5 2.23862 2.73858 4.57764e-05 5.5 4.57764e-05C8.26142 4.57764e-05 10.5 2.23862 10.5 5.00005ZM5.67918 3.69127C5.19285 3.89354 4.22089 4.31221 2.76329 4.94726C2.5266 5.04139 2.40261 5.13347 2.39132 5.22351C2.37224 5.37567 2.5628 5.43559 2.82228 5.51718C2.85758 5.52828 2.89415 5.53978 2.93164 5.55197C3.18693 5.63495 3.53034 5.73204 3.70887 5.73589C3.87081 5.73939 4.05155 5.67263 4.2511 5.5356C5.61298 4.6163 6.31599 4.15163 6.36013 4.14162C6.39127 4.13455 6.43442 4.12566 6.46365 4.15165C6.49289 4.17763 6.49001 4.22685 6.48692 4.24005C6.46804 4.32052 5.72005 5.01592 5.33297 5.37579C5.21229 5.48797 5.1267 5.56755 5.1092 5.58573C5.07 5.62644 5.03005 5.66495 4.99166 5.70196C4.75449 5.9306 4.57663 6.10205 5.00151 6.38204C5.20568 6.51659 5.36907 6.62786 5.53207 6.73886C5.71007 6.86008 5.88762 6.98099 6.11734 7.13157C6.17587 7.16994 6.23176 7.20979 6.2862 7.2486C6.49336 7.39629 6.67948 7.52897 6.90941 7.50781C7.04302 7.49551 7.18103 7.36988 7.25111 6.99519C7.41676 6.10969 7.74234 4.19107 7.81759 3.40045C7.82418 3.33118 7.81589 3.24253 7.80923 3.20362C7.80257 3.1647 7.78865 3.10926 7.73807 3.06821C7.67816 3.0196 7.58568 3.00935 7.54432 3.01008C7.35626 3.01339 7.06773 3.11372 5.67918 3.69127Z" fill="#fff"/>
</svg>
