<svg width="11" height="10" viewBox="0 0 11 10" fill="none" xmlns="http://www.w3.org/2000/svg">
<path fill-rule="evenodd" clip-rule="evenodd" d="M1.20294 0.70299C0.5 1.40593 0.5 2.5373 0.5 4.80005V5.20005C0.5 7.4628 0.5 8.59415 1.20294 9.29711C1.90589 10 3.03725 10 5.3 10H5.7C7.96275 10 9.0941 10 9.79706 9.29711C10.5 8.59415 10.5 7.4628 10.5 5.20005V4.80005C10.5 2.5373 10.5 1.40593 9.79706 0.70299C9.0941 4.57764e-05 7.96275 4.57764e-05 5.7 4.57764e-05H5.3C3.03725 4.57764e-05 1.90589 4.57764e-05 1.20294 0.70299ZM2.18752 3.04173C2.24169 5.64173 3.54169 7.20423 5.82085 7.20423H5.95004V5.71673C6.78754 5.80007 7.42083 6.41257 7.675 7.20423H8.85835C8.53335 6.0209 7.67915 5.36673 7.14581 5.11673C7.67915 4.8084 8.42915 4.0584 8.60831 3.04173H7.53329C7.29996 3.86673 6.60838 4.61673 5.95004 4.68757V3.04173H4.875V5.92507C4.20833 5.7584 3.36669 4.95007 3.32919 3.04173H2.18752Z" fill="#fff"/>
</svg>
